<mxfile host="drawio-plugin" modified="2024-09-07T14:42:59.233Z" agent="5.0 (Windows NT 6.2; Win64; x64) AppleWebKit/537.36 (KHTML, like Gecko) Chrome/104.0.5112.102 Safari/537.36" etag="xVz44QlIj6oMdQ9j92hH" version="20.5.3" type="embed"><diagram id="j-mSVz4Y9RyfdG1uPcG9" name="Страница 1"><mxGraphModel dx="1503" dy="773" grid="1" gridSize="10" guides="1" tooltips="1" connect="1" arrows="1" fold="1" page="1" pageScale="1" pageWidth="827" pageHeight="1169" math="0" shadow="0"><root><mxCell id="0"/><mxCell id="1" parent="0"/><mxCell id="2" value="&lt;h1&gt;Factory Method&lt;/h1&gt;&lt;p&gt;Диаграмма классов паттерна &quot;Фабричный метод&quot;&lt;/p&gt;" style="text;html=1;strokeColor=none;fillColor=none;spacing=5;spacingTop=-20;whiteSpace=wrap;overflow=hidden;rounded=0;" parent="1" vertex="1"><mxGeometry x="40" y="40" width="320" height="80" as="geometry"/></mxCell><mxCell id="3" value="AbstractClassCreator" style="swimlane;fontStyle=0;childLayout=stackLayout;horizontal=1;startSize=26;fillColor=none;horizontalStack=0;resizeParent=1;resizeParentMax=0;resizeLast=0;collapsible=1;marginBottom=0;" parent="1" vertex="1"><mxGeometry x="320" y="150" width="160" height="78" as="geometry"/></mxCell><mxCell id="4" value="+ AnOperator()" style="text;strokeColor=none;fillColor=none;align=left;verticalAlign=top;spacingLeft=4;spacingRight=4;overflow=hidden;rotatable=0;points=[[0,0.5],[1,0.5]];portConstraint=eastwest;" parent="3" vertex="1"><mxGeometry y="26" width="160" height="26" as="geometry"/></mxCell><mxCell id="5" value="# FactoryMethod(): Product" style="text;strokeColor=none;fillColor=none;align=left;verticalAlign=top;spacingLeft=4;spacingRight=4;overflow=hidden;rotatable=0;points=[[0,0.5],[1,0.5]];portConstraint=eastwest;" parent="3" vertex="1"><mxGeometry y="52" width="160" height="26" as="geometry"/></mxCell><mxCell id="7" value="ConcreteClassCreator" style="swimlane;fontStyle=0;childLayout=stackLayout;horizontal=1;startSize=26;fillColor=none;horizontalStack=0;resizeParent=1;resizeParentMax=0;resizeLast=0;collapsible=1;marginBottom=0;" parent="1" vertex="1"><mxGeometry x="320" y="320" width="160" height="52" as="geometry"/></mxCell><mxCell id="10" value="# FactoryMethod(): Product" style="text;strokeColor=none;fillColor=none;align=left;verticalAlign=top;spacingLeft=4;spacingRight=4;overflow=hidden;rotatable=0;points=[[0,0.5],[1,0.5]];portConstraint=eastwest;" parent="7" vertex="1"><mxGeometry y="26" width="160" height="26" as="geometry"/></mxCell><mxCell id="11" value="Extends" style="endArrow=block;endSize=16;endFill=0;html=1;entryX=0.492;entryY=1.083;entryDx=0;entryDy=0;entryPerimeter=0;exitX=0.5;exitY=0;exitDx=0;exitDy=0;" parent="1" source="7" target="5" edge="1"><mxGeometry width="160" relative="1" as="geometry"><mxPoint x="360" y="310" as="sourcePoint"/><mxPoint x="360.96000000000004" y="256.00199999999995" as="targetPoint"/><Array as="points"/></mxGeometry></mxCell><mxCell id="12" value="Product AnOperation() {&lt;br&gt;...&lt;br&gt;Product product = FactoryMethod();&lt;br&gt;...&lt;br&gt;return product;&lt;br&gt;}" style="shape=note2;boundedLbl=1;whiteSpace=wrap;html=1;size=25;verticalAlign=top;align=center;" parent="1" vertex="1"><mxGeometry x="540" y="150" width="220" height="140" as="geometry"/></mxCell><mxCell id="29" value="return ConcreteProduct();" style="shape=note2;boundedLbl=1;whiteSpace=wrap;html=1;size=25;verticalAlign=top;align=center;" vertex="1" parent="1"><mxGeometry x="540" y="320" width="220" height="70" as="geometry"/></mxCell><mxCell id="31" value="" style="endArrow=none;html=1;rounded=0;exitX=1.013;exitY=-0.032;exitDx=0;exitDy=0;exitPerimeter=0;entryX=0;entryY=0.5;entryDx=0;entryDy=0;entryPerimeter=0;" edge="1" parent="1" source="10" target="29"><mxGeometry width="50" height="50" relative="1" as="geometry"><mxPoint x="820" y="410" as="sourcePoint"/><mxPoint x="870" y="360" as="targetPoint"/><Array as="points"><mxPoint x="480" y="345"/></Array></mxGeometry></mxCell><mxCell id="32" value="Product" style="swimlane;fontStyle=0;childLayout=stackLayout;horizontal=1;startSize=26;fillColor=none;horizontalStack=0;resizeParent=1;resizeParentMax=0;resizeLast=0;collapsible=1;marginBottom=0;" vertex="1" parent="1"><mxGeometry x="40" y="150" width="160" height="52" as="geometry"/></mxCell><mxCell id="37" value="Use" style="endArrow=open;endSize=12;dashed=1;html=1;rounded=0;exitX=0;exitY=0.5;exitDx=0;exitDy=0;entryX=1;entryY=0.5;entryDx=0;entryDy=0;" edge="1" parent="1" source="5" target="32"><mxGeometry width="160" relative="1" as="geometry"><mxPoint x="110" y="260" as="sourcePoint"/><mxPoint x="270" y="260" as="targetPoint"/></mxGeometry></mxCell><mxCell id="38" value="ConcreteProduct #1" style="swimlane;fontStyle=0;childLayout=stackLayout;horizontal=1;startSize=26;fillColor=none;horizontalStack=0;resizeParent=1;resizeParentMax=0;resizeLast=0;collapsible=1;marginBottom=0;" vertex="1" parent="1"><mxGeometry x="40" y="280" width="140" height="52" as="geometry"/></mxCell><mxCell id="39" value="Extends" style="endArrow=block;endSize=16;endFill=0;html=1;rounded=0;exitX=0.5;exitY=0;exitDx=0;exitDy=0;" edge="1" parent="1" source="38"><mxGeometry width="160" relative="1" as="geometry"><mxPoint x="120" y="370" as="sourcePoint"/><mxPoint x="80" y="200" as="targetPoint"/></mxGeometry></mxCell><mxCell id="40" value="ConcreteProduct #2" style="swimlane;fontStyle=0;childLayout=stackLayout;horizontal=1;startSize=26;fillColor=none;horizontalStack=0;resizeParent=1;resizeParentMax=0;resizeLast=0;collapsible=1;marginBottom=0;" vertex="1" parent="1"><mxGeometry x="110" y="360" width="140" height="52" as="geometry"/></mxCell><mxCell id="41" value="ConcreteProduct #3" style="swimlane;fontStyle=0;childLayout=stackLayout;horizontal=1;startSize=26;fillColor=none;horizontalStack=0;resizeParent=1;resizeParentMax=0;resizeLast=0;collapsible=1;marginBottom=0;" vertex="1" parent="1"><mxGeometry x="180" y="440" width="140" height="52" as="geometry"/></mxCell><mxCell id="42" value="Extends" style="endArrow=block;endSize=16;endFill=0;html=1;rounded=0;exitX=0.75;exitY=0;exitDx=0;exitDy=0;entryX=0.75;entryY=1;entryDx=0;entryDy=0;" edge="1" parent="1" source="40" target="32"><mxGeometry width="160" relative="1" as="geometry"><mxPoint x="240" y="360" as="sourcePoint"/><mxPoint x="190" y="200" as="targetPoint"/></mxGeometry></mxCell><mxCell id="44" value="Extends" style="endArrow=block;endSize=16;endFill=0;html=1;rounded=0;exitX=0.906;exitY=-0.038;exitDx=0;exitDy=0;exitPerimeter=0;" edge="1" parent="1" source="41"><mxGeometry width="160" relative="1" as="geometry"><mxPoint x="300" y="430" as="sourcePoint"/><mxPoint x="200" y="200" as="targetPoint"/></mxGeometry></mxCell><mxCell id="45" value="" style="endArrow=none;html=1;rounded=0;exitX=1.013;exitY=-0.032;exitDx=0;exitDy=0;exitPerimeter=0;entryX=0;entryY=0.5;entryDx=0;entryDy=0;entryPerimeter=0;" edge="1" parent="1" target="12"><mxGeometry width="50" height="50" relative="1" as="geometry"><mxPoint x="482.0799999999999" y="192.1679999999999" as="sourcePoint"/><mxPoint x="540" y="202" as="targetPoint"/><Array as="points"><mxPoint x="480" y="192"/></Array></mxGeometry></mxCell></root></mxGraphModel></diagram></mxfile>